<?xml version="1.0" encoding="UTF-8"?>
<svg width="220px" height="194px" viewBox="0 0 220 194" version="1.1" xmlns="http://www.w3.org/2000/svg" xmlns:xlink="http://www.w3.org/1999/xlink">
    <!-- Generator: Sketch 52.5 (67469) - http://www.bohemiancoding.com/sketch -->
    <title>Group 38</title>
    <desc>Created with Sketch.</desc>
    <defs>
        <polygon id="path-1" points="0 0.9974 4.9998 0.9974 4.9998 5.9999 0 5.9999"></polygon>
    </defs>
    <g id="Symbols" stroke="none" stroke-width="1" fill="none" fill-rule="evenodd">
        <g id="Icon/Find" transform="translate(-15.000000, -28.000000)">
            <g id="Group-38" transform="translate(15.000000, 28.000000)">
                <path d="M191.2902,54.4198 C190.8302,54.8798 190.5602,55.5298 190.5602,56.1898 C190.5602,56.3498 190.5802,56.5198 190.6102,56.6798 C190.6402,56.8398 190.6902,56.9898 190.7502,57.1498 C190.8202,57.2998 190.8902,57.4398 190.9802,57.5798 C191.0702,57.7098 191.1802,57.8398 191.2902,57.9598 C191.7602,58.4198 192.4002,58.6898 193.0602,58.6898 C193.7202,58.6898 194.3602,58.4198 194.8302,57.9598 C194.9402,57.8398 195.0502,57.7098 195.1402,57.5798 C195.2302,57.4398 195.3102,57.2998 195.3702,57.1498 C195.4302,56.9898 195.4802,56.8398 195.5102,56.6798 C195.5402,56.5198 195.5602,56.3498 195.5602,56.1898 C195.5602,55.5298 195.2902,54.8798 194.8302,54.4198 C193.9002,53.4898 192.2302,53.4898 191.2902,54.4198" id="Fill-1" fill="#07874B"></path>
                <path d="M19.28,148.0701 C18.8,148.0701 18.31,148.2101 17.88,148.5001 C16.74,149.2701 16.43,150.8201 17.2,151.9701 C17.68,152.6901 18.47,153.0701 19.28,153.0701 C19.76,153.0701 20.24,152.9401 20.67,152.6501 C21.39,152.1701 21.78,151.3801 21.78,150.5701 C21.78,150.0901 21.64,149.6101 21.35,149.1801 C20.87,148.4601 20.08,148.0701 19.28,148.0701" id="Fill-3" fill="#07874B"></path>
                <path d="M3.4602,173.0702 C3.3202,173.0502 3.1802,173.0302 3.0402,173.0302 C1.8302,173.0302 0.7802,173.8902 0.5602,175.1102 C0.3202,176.4702 1.2302,177.7602 2.5902,178.0002 C2.7402,178.0202 2.8802,178.0402 3.0302,178.0402 C3.6302,178.0402 4.1902,177.8202 4.6202,177.4602 C5.0602,177.0902 5.3802,176.5802 5.4902,175.9702 C5.5102,175.8302 5.5302,175.6802 5.5302,175.5402 C5.5302,174.3502 4.6802,173.2802 3.4602,173.0702" id="Fill-5" fill="#07874B"></path>
                <path d="M9.9699,159.3001 C9.5499,159.0301 9.0699,158.9001 8.5999,158.9001 C7.7899,158.9001 6.9899,159.2901 6.5099,160.0301 C5.7499,161.1901 6.0799,162.7401 7.2299,163.4901 C7.6599,163.7601 8.1299,163.9001 8.5999,163.9001 C9.4199,163.9001 10.2199,163.5001 10.6899,162.7601 L10.6999,162.7601 C10.9699,162.3401 11.0999,161.8701 11.0999,161.4101 C11.0999,160.5901 10.6999,159.7801 9.9699,159.3001" id="Fill-7" fill="#07874B"></path>
                <path d="M109.8298,141.64 C108.4498,141.64 107.3298,142.76 107.3298,144.14 C107.3298,144.83 107.6098,145.46 108.0598,145.91 C108.5098,146.36 109.1398,146.64 109.8298,146.64 C110.5198,146.64 111.1498,146.36 111.5998,145.91 C112.0498,145.46 112.3298,144.83 112.3298,144.14 C112.3298,143.45 112.0498,142.82 111.5998,142.37 C111.1498,141.92 110.5198,141.64 109.8298,141.64" id="Fill-9" fill="#07874B"></path>
                <path d="M203.8898,64.5101 C203.2598,64.5101 202.6198,64.7601 202.1298,65.2401 C201.1498,66.2101 201.1398,67.7901 202.1098,68.7701 C202.5998,69.2701 203.2398,69.5101 203.8898,69.5101 C204.5198,69.5101 205.1598,69.2701 205.6498,68.7901 C206.1398,68.3001 206.3898,67.6601 206.3898,67.0201 C206.3898,66.3801 206.1498,65.7401 205.6598,65.2501 C205.1698,64.7601 204.5298,64.5101 203.8898,64.5101" id="Fill-11" fill="#07874B"></path>
                <path d="M216.3601,106.9202 C216.1701,106.8702 215.9701,106.8502 215.7801,106.8502 C214.6501,106.8502 213.6201,107.6302 213.3501,108.7802 C213.0301,110.1202 213.8601,111.4702 215.2101,111.7802 C215.4001,111.8302 215.6001,111.8502 215.7901,111.8502 C216.9201,111.8502 217.9401,111.0802 218.2201,109.9302 C218.2701,109.7402 218.2901,109.5402 218.2901,109.3502 C218.2901,108.2202 217.5101,107.1902 216.3601,106.9202" id="Fill-13" fill="#07874B"></path>
                <path d="M211.1701,121.2601 C210.7501,120.9901 210.2801,120.8601 209.8201,120.8601 C209.0001,120.8601 208.1901,121.2701 207.7101,122.0101 C206.9601,123.1701 207.3001,124.7201 208.4601,125.4701 C208.8801,125.7401 209.3501,125.8601 209.8101,125.8601 C210.6301,125.8601 211.4401,125.4601 211.9101,124.7201 L211.9201,124.7201 C212.1901,124.3001 212.3101,123.8301 212.3101,123.3701 C212.3101,122.5501 211.9101,121.7401 211.1701,121.2601" id="Fill-15" fill="#07874B"></path>
                <path d="M219.2399,93.89 C219.1099,92.61 218.0199,91.65 216.7599,91.65 C216.6699,91.65 216.5899,91.65 216.4999,91.66 C215.1199,91.81 214.1199,93.04 214.2699,94.41 C214.3299,95.06 214.6399,95.62 215.0899,96.01 C215.5299,96.41 216.1199,96.65 216.7499,96.65 C216.8399,96.65 216.9299,96.65 217.0199,96.64 C218.2999,96.5 219.2499,95.42 219.2499,94.16 C219.2499,94.07 219.2499,93.98 219.2399,93.89" id="Fill-17" fill="#07874B"></path>
                <path d="M215.1398,79.4803 C215.1398,79.1203 215.0598,78.7603 214.8998,78.4103 C214.4698,77.5103 213.5698,76.9803 212.6298,76.9803 C212.2698,76.9803 211.9098,77.0603 211.5698,77.2203 C210.3198,77.8203 209.7898,79.3103 210.3798,80.5603 C210.8098,81.4603 211.6998,81.9803 212.6398,81.9803 C212.9998,81.9803 213.3598,81.9103 213.7098,81.7403 C214.6098,81.3103 215.1398,80.4203 215.1398,79.4803" id="Fill-19" fill="#07874B"></path>
                <path d="M199.53,132.0999 C199,132.0999 198.46,132.2699 198,132.6299 C196.91,133.4799 196.71,135.0499 197.56,136.1399 C198.05,136.7699 198.79,137.0999 199.53,137.0999 C200.07,137.0999 200.61,136.9299 201.07,136.5799 C201.7,136.0899 202.03,135.3499 202.03,134.6099 C202.03,134.0699 201.86,133.5299 201.5,133.0699 C201.01,132.4399 200.28,132.0999 199.53,132.0999" id="Fill-21" fill="#07874B"></path>
                <g id="Group-25" transform="translate(0.000000, 187.410000)">
                    <mask id="mask-2" fill="white">
                        <use xlink:href="#path-1"></use>
                    </mask>
                    <g id="Clip-24"></g>
                    <path d="M3.8898,1.4199 C3.7598,1.3299 3.6098,1.2499 3.4598,1.1899 C3.3098,1.1299 3.1498,1.0799 2.9898,1.0499 C2.6698,0.9799 2.3398,0.9799 2.0098,1.0499 C1.8498,1.0799 1.6998,1.1299 1.5498,1.1899 C1.3998,1.2499 1.2498,1.3299 1.1098,1.4199 C0.9798,1.5099 0.8498,1.6199 0.7298,1.7299 C0.6198,1.8499 0.5198,1.9699 0.4198,2.1099 C0.3298,2.2499 0.2598,2.3899 0.1898,2.5399 C0.1298,2.6899 0.0798,2.8499 0.0498,3.0099 C0.0198,3.1699 -0.0002,3.3399 -0.0002,3.4999 C-0.0002,4.1599 0.2698,4.7999 0.7298,5.2699 C0.8498,5.3799 0.9798,5.4899 1.1098,5.5799 C1.2498,5.6699 1.3998,5.7399 1.5498,5.8099 C1.6998,5.8699 1.8498,5.9199 2.0098,5.9499 C2.1798,5.9799 2.3398,5.9999 2.4998,5.9999 C2.6698,5.9999 2.8298,5.9799 2.9898,5.9499 C3.1498,5.9199 3.3098,5.8699 3.4598,5.8099 C3.6098,5.7399 3.7598,5.6699 3.8898,5.5799 C4.0298,5.4899 4.1598,5.3799 4.2698,5.2699 C4.3898,5.1499 4.4898,5.0199 4.5798,4.8899 C4.6698,4.7499 4.7498,4.6099 4.8098,4.4499 C4.8698,4.2999 4.9198,4.1499 4.9498,3.9899 C4.9898,3.8299 4.9998,3.6599 4.9998,3.4999 C4.9998,2.8399 4.7398,2.1899 4.2698,1.7299 C4.1598,1.6199 4.0298,1.5099 3.8898,1.4199" id="Fill-23" fill="#07874B" mask="url(#mask-2)"></path>
                </g>
                <path d="M78.6399,132.6102 C77.1299,131.7602 75.4999,131.0802 73.7899,130.6102 C71.8499,130.0602 69.8099,129.7702 67.6999,129.7702 C65.5899,129.7702 63.5499,130.0602 61.6199,130.6102 C59.9099,131.0802 58.2799,131.7602 56.7599,132.6102 C52.9499,134.7302 49.8099,137.9302 47.7599,141.7902 C47.1899,142.8602 46.6999,143.9902 46.3199,145.1602 C46.1199,145.7002 45.9599,146.2602 45.8199,146.8302 C45.3799,148.5902 45.1399,150.4302 45.1399,152.3302 C45.1399,164.7802 55.2599,174.9002 67.6999,174.9002 C79.2899,174.9002 88.8599,166.1302 90.1199,154.8802 C90.2199,154.0402 90.2699,153.1902 90.2699,152.3302 C90.2699,143.8602 85.5699,136.4602 78.6399,132.6102" id="Fill-26" fill="#07874B"></path>
                <path d="M100.9001,135.5799 C100.3901,134.5599 99.8301,133.5699 99.2301,132.6099 C98.8001,131.9299 98.3501,131.2599 97.8801,130.6099 C97.3801,129.9199 96.8601,129.2599 96.3201,128.6099 C89.5001,120.3899 79.2001,115.1399 67.7001,115.1399 C61.3901,115.1399 55.4301,116.7199 50.2201,119.5199 C49.4101,119.9399 48.6301,120.3999 47.8601,120.8899 C47.0401,121.4099 46.2301,121.9599 45.4601,122.5499 C43.5801,123.9499 41.8401,125.5299 40.2601,127.2599 L48.8401,99.1199 C49.0401,98.4599 49.2201,97.7899 49.4001,97.1199 L49.6001,96.3399 C50.3001,93.7799 51.3701,91.3899 52.7401,89.2299 C53.5801,87.8999 54.5401,86.6599 55.5901,85.5199 C56.4001,84.6399 57.2601,83.8199 58.1801,83.0599 C62.7501,79.2999 68.5701,77.0799 74.7901,77.0799 C83.7301,77.0799 91.6301,81.5899 96.3401,88.4599 C97.0901,89.5499 97.7601,90.7099 98.3401,91.9199 C98.8501,92.9899 99.3001,94.0999 99.6601,95.2399 L98.9201,95.2399 C98.7201,95.2399 98.5201,95.2699 98.3401,95.3299 C97.7701,95.4999 97.2901,95.9299 97.0601,96.4999 L96.3401,98.2999 L92.1701,108.7299 C92.1601,108.7399 92.1501,108.7599 92.1501,108.7799 C92.1301,108.8399 92.1001,108.8999 92.0901,108.9599 C92.0701,109.0199 92.0501,109.0799 92.0401,109.1499 C92.0101,109.2699 92.0001,109.3999 92.0001,109.5299 L92.0001,121.8099 C92.0001,122.9199 92.9001,123.8099 94.0001,123.8099 L100.9001,123.8099 L100.9001,135.5799 Z M67.7001,185.5299 C49.4001,185.5299 34.5101,170.6399 34.5101,152.3299 C34.5101,150.3999 34.6801,148.5099 35.0001,146.6699 L35.0001,146.6599 C35.0901,146.0799 35.2101,145.5099 35.3401,144.9299 C35.4301,144.5499 35.5201,144.1799 35.6201,143.7999 C37.1201,138.1699 40.0601,133.1199 44.0301,129.0799 C44.8401,128.2599 45.6901,127.4799 46.5801,126.7399 C47.3701,126.0899 48.1901,125.4699 49.0401,124.8899 C54.3601,121.2599 60.7901,119.1399 67.7001,119.1399 C76.7201,119.1399 84.9101,122.7499 90.9101,128.6099 C91.5601,129.2599 92.1901,129.9199 92.7901,130.6099 C93.3501,131.2599 93.8901,131.9199 94.3901,132.6099 C98.4801,138.1299 100.9001,144.9499 100.9001,152.3299 C100.9001,153.8399 100.8001,155.3199 100.6001,156.7799 C98.4201,172.9899 84.5001,185.5299 67.7001,185.5299 Z M96.0001,119.8099 L96.0001,111.5299 L98.3401,111.5299 L100.3401,111.5299 L100.9001,111.5299 L104.9001,111.5299 L114.1821,111.5299 L116.1821,111.5299 L118.1821,111.5299 L118.7421,111.5299 L120.7421,111.5299 L122.7421,111.5299 L124.5721,111.5299 L124.5721,119.8099 L122.7421,119.8099 L120.7421,119.8099 L118.7421,119.8099 L118.1821,119.8099 L116.1821,119.8099 L114.1821,119.8099 L104.9001,119.8099 L100.9001,119.8099 L96.0001,119.8099 Z M114.4521,99.2399 L116.4621,99.2399 L118.4821,99.2399 L118.7421,99.2399 L120.3121,99.2399 L120.7421,100.3199 L122.7421,105.3299 L123.6221,107.5299 L122.7421,107.5299 L120.7421,107.5299 L118.7421,107.5299 L118.1821,107.5299 L116.1821,107.5299 L114.1821,107.5299 L104.9001,107.5299 L100.9001,107.5299 L100.3401,107.5299 L98.3401,107.5299 L96.9601,107.5299 L98.3401,104.0699 L100.2701,99.2399 L100.6001,99.2399 L104.6301,99.2399 L114.4521,99.2399 Z M119.1901,123.8099 L119.7501,123.8099 L121.7501,123.8099 L123.7501,123.8099 L126.5721,123.8099 C127.6821,123.8099 128.5721,122.9199 128.5721,121.8099 L128.5721,109.5299 C128.5721,109.4599 128.5721,109.3899 128.5621,109.3299 C128.5521,109.2599 128.5421,109.1899 128.5321,109.1299 C128.5021,108.9899 128.4621,108.8499 128.4121,108.7299 L123.5221,96.4999 C123.3621,96.0999 123.0821,95.7799 122.7421,95.5599 C122.4321,95.3599 122.0521,95.2399 121.6621,95.2399 L120.7421,95.2399 L120.4301,95.2399 C120.7901,94.0999 121.2401,92.9899 121.7501,91.9199 C122.3301,90.7099 123.0001,89.5599 123.7501,88.4699 C128.4501,81.5999 136.3601,77.0799 145.3001,77.0799 C151.5301,77.0799 157.3701,79.3399 161.9401,83.1399 C162.8501,83.8899 163.7101,84.7099 164.5101,85.5799 C165.5701,86.7199 166.5301,87.9599 167.3601,89.2799 C168.9601,91.7899 170.1401,94.5899 170.8001,97.6099 L179.2401,126.6299 C177.8201,125.1399 176.2801,123.7699 174.6301,122.5399 C173.8501,121.9599 173.0501,121.4099 172.2301,120.8899 C171.4701,120.3999 170.6801,119.9399 169.8801,119.5199 C164.6601,116.7199 158.7101,115.1399 152.3901,115.1399 C140.8901,115.1399 130.5901,120.3899 123.7701,128.6099 C123.2301,129.2599 122.7101,129.9199 122.2101,130.6099 C121.7401,131.2599 121.2901,131.9299 120.8601,132.6099 C120.2601,133.5699 119.7001,134.5599 119.1901,135.5799 L119.1901,123.8099 Z M152.3901,185.5299 C135.6101,185.5299 121.7101,173.0299 119.5001,156.8499 C119.2901,155.3699 119.1901,153.8599 119.1901,152.3299 C119.1901,144.9499 121.6101,138.1299 125.7001,132.6099 C126.2001,131.9199 126.7401,131.2599 127.3001,130.6099 C127.9001,129.9199 128.5301,129.2599 129.1801,128.6099 C135.1701,122.7499 143.3601,119.1399 152.3901,119.1399 C159.3101,119.1399 165.7401,121.2599 171.0601,124.8899 L171.0601,124.8999 C171.9001,125.4799 172.7201,126.0899 173.5101,126.7399 L173.5101,126.7499 C174.4001,127.4799 175.2501,128.2599 176.0601,129.0799 C178.9501,132.0199 181.3001,135.4999 182.9401,139.3499 L182.9401,139.3599 C183.2101,139.9799 183.4501,140.6199 183.6801,141.2599 C183.9601,142.0399 184.2101,142.8399 184.4301,143.6499 C184.7101,144.6699 184.9301,145.7099 185.1101,146.7599 L185.1001,146.7699 L185.1301,146.8599 C185.1301,146.8699 185.1301,146.8899 185.1401,146.8999 C185.4301,148.6699 185.5801,150.4799 185.5801,152.3299 C185.5801,170.6399 170.6901,185.5299 152.3901,185.5299 Z M189.0601,146.1499 C189.0501,146.0699 189.0301,145.9799 189.0101,145.8999 C188.8401,144.8799 188.6201,143.8799 188.3601,142.8899 L188.3601,142.8799 C188.0431,141.5299 174.6901,96.6899 174.6901,96.6899 C173.3201,90.4899 170.0401,85.0599 165.5501,80.9999 L165.2201,79.4699 C162.9301,68.9799 153.4801,61.3699 142.7501,61.3699 C130.0701,61.3699 119.7501,71.6899 119.7501,84.3799 L119.7501,87.2899 C118.2201,89.7299 117.0301,92.3999 116.2601,95.2399 L103.8301,95.2399 C103.0601,92.3999 101.8701,89.7299 100.3401,87.2899 C99.7401,86.3099 99.0701,85.3699 98.3401,84.4699 L98.3401,84.3799 C98.3401,72.7799 88.9401,63.3699 77.3401,63.3699 C67.8201,63.3699 59.5501,69.7599 57.0801,78.8599 C56.2001,79.4999 55.3601,80.1899 54.5501,80.9199 C50.4001,84.6899 47.2801,89.6199 45.7401,95.2999 L45.5301,96.0999 C45.3601,96.7199 45.2001,97.3399 45.0101,97.9499 C45.0101,97.9499 31.8761,140.8009 31.0801,145.8399 C30.7001,147.9499 30.5101,150.1199 30.5101,152.3299 C30.5101,172.8399 47.2001,189.5299 67.7001,189.5299 C86.0901,189.5299 101.4101,176.1099 104.3801,158.5399 C105.4801,150.0719 104.9001,123.8099 104.9001,123.8099 L115.1901,123.8099 C115.1901,123.8099 114.8131,150.2799 115.7101,158.5399 C118.6801,176.1099 134.0001,189.5299 152.3901,189.5299 C172.9001,189.5299 189.5801,172.8399 189.5801,152.3299 C189.5801,150.2399 189.4101,148.1899 189.0701,146.1999 C189.0701,146.1799 189.0701,146.1599 189.0601,146.1499 Z" id="Fill-28" fill="#07874B"></path>
                <path d="M173.5397,144.47 C173.2297,143.65 172.8797,142.85 172.4797,142.08 C170.4397,138.09 167.2397,134.78 163.3197,132.61 C161.8097,131.76 160.1797,131.08 158.4697,130.61 C156.5397,130.06 154.4997,129.77 152.3897,129.77 C150.2897,129.77 148.2497,130.06 146.3097,130.61 C144.5997,131.08 142.9697,131.76 141.4497,132.61 C134.5197,136.46 129.8197,143.86 129.8197,152.33 C129.8197,153.31 129.8797,154.28 130.0097,155.23 C131.4297,166.31 140.9197,174.9 152.3897,174.9 C164.8297,174.9 174.9497,164.78 174.9497,152.33 C174.9497,150.98 174.8297,149.66 174.5997,148.38 C174.3597,147.03 173.9997,145.72 173.5397,144.47" id="Fill-30" fill="#07874B"></path>
                <path d="M168.8269,34.536 L163.1039,40.26 C163.0919,40.271 163.0829,40.284 163.0719,40.295 L161.7469,41.62 C160.5469,42.82 158.9529,43.48 157.2589,43.481 L157.2569,43.481 C155.5639,43.481 153.9719,42.821 152.7739,41.623 L145.6859,34.536 C152.4169,29.119 162.0949,29.119 168.8269,34.536 M172.2049,8.017 L179.2929,15.105 C181.7649,17.578 181.7649,21.601 179.2929,24.074 L177.9659,25.401 C177.9539,25.412 177.9419,25.422 177.9309,25.433 L172.2049,31.158 C166.7879,24.426 166.7879,14.748 172.2049,8.017 M192.7959,28.261 L197.3619,32.828 L191.3619,38.828 C189.5529,40.637 184.8999,44.396 180.7609,40.259 L174.7629,34.261 L180.7989,28.224 C184.1209,24.945 189.4889,24.956 192.7959,28.261 M176.4959,53.693 L170.4959,59.693 L165.9299,55.127 C162.6229,51.82 162.6149,46.447 165.8989,43.124 L171.9329,37.09 L177.9319,43.088 C182.0699,47.226 178.3059,51.883 176.4959,53.693 M139.6709,39.57 C140.1829,39.57 140.6949,39.375 141.0849,38.984 L142.7819,37.288 L149.9459,44.452 C151.8989,46.405 154.4949,47.481 157.2569,47.481 L157.2599,47.481 C158.0589,47.481 158.8419,47.38 159.6019,47.204 C159.0199,51.01 160.1779,55.031 163.1019,57.955 L170.4959,65.35 L172.7899,67.643 C173.1809,68.034 173.6929,68.229 174.2039,68.229 C174.7159,68.229 175.2279,68.034 175.6189,67.643 C176.3999,66.863 176.3999,65.596 175.6189,64.815 L173.3249,62.521 L179.3249,56.521 C182.6629,53.182 184.1419,49.455 183.7069,46.03 C184.0959,46.079 184.4869,46.113 184.8829,46.113 C187.9699,46.113 191.2329,44.613 194.1899,41.656 L200.1899,35.656 L202.4839,37.95 C202.8739,38.34 203.3869,38.536 203.8979,38.536 C204.4099,38.536 204.9219,38.34 205.3119,37.95 C206.0939,37.169 206.0939,35.902 205.3119,35.121 L203.0179,32.828 L203.0189,32.828 L195.6239,25.433 C192.6979,22.507 188.6729,21.349 184.8669,21.933 C185.6439,18.57 184.7369,14.892 182.1209,12.277 L174.9569,5.113 L176.6549,3.414 C177.4359,2.634 177.4359,1.367 176.6549,0.586 C175.8749,-0.195 174.6069,-0.195 173.8269,0.586 L172.1289,2.285 L172.1289,2.284 L170.7149,3.699 L170.7139,3.7 L170.7129,3.701 C166.0819,8.333 163.9249,14.499 164.1909,20.578 C162.3879,19.985 160.3259,20.383 158.8939,21.815 C157.6269,23.082 157.1529,24.846 157.4699,26.485 C151.6449,26.43 145.8029,28.61 141.3689,33.044 L141.3689,33.045 L141.3679,33.045 L139.9529,34.459 L139.9529,34.46 L138.2569,36.156 C137.4759,36.937 137.4759,38.203 138.2569,38.984 C138.6469,39.375 139.1599,39.57 139.6709,39.57" id="Fill-32" fill="#07874B"></path>
                <path d="M169.0813,48.4461 C168.0413,49.4861 168.0433,51.1681 169.0833,52.2081 C170.1233,53.2471 171.8043,53.2471 172.8433,52.2081 C173.8843,51.1671 173.8843,49.4861 172.8453,48.4461 C171.8063,47.4061 170.1233,47.4041 169.0813,48.4461" id="Fill-34" fill="#07874B"></path>
                <path d="M189.8776,35.1732 C190.9196,34.1322 190.9196,32.4512 189.8796,31.4112 C188.8396,30.3722 187.1576,30.3702 186.1156,31.4112 C185.0766,32.4512 185.0746,34.1372 186.1136,35.1772 C187.1536,36.2162 188.8376,36.2132 189.8776,35.1732" id="Fill-36" fill="#07874B"></path>
            </g>
        </g>
    </g>
</svg>